<svg width="215" height="32" viewBox="0 0 215 32" fill="none" xmlns="http://www.w3.org/2000/svg">
<mask id="path-1-outside-1_2210_570" maskUnits="userSpaceOnUse" x="93" y="0" width="29" height="30" fill="black">
<rect fill="white" x="93" width="29" height="30"/>
<path d="M111.388 2.8H118.444C118.708 2.8 118.936 2.896 119.128 3.088C119.32 3.28 119.416 3.508 119.416 3.772V27.028C119.416 27.292 119.32 27.52 119.128 27.712C118.936 27.904 118.708 28 118.444 28H111.388C111.124 28 110.896 27.904 110.704 27.712C110.512 27.52 110.416 27.292 110.416 27.028V19.252H104.584V27.028C104.584 27.292 104.488 27.52 104.296 27.712C104.104 27.904 103.876 28 103.612 28H96.5561C96.2921 28 96.0641 27.916 95.8721 27.748C95.6801 27.556 95.5841 27.316 95.5841 27.028V3.772C95.5841 3.508 95.6801 3.28 95.8721 3.088C96.0641 2.896 96.2921 2.8 96.5561 2.8H103.612C103.876 2.8 104.104 2.896 104.296 3.088C104.488 3.28 104.584 3.508 104.584 3.772V11.332H110.416V3.772C110.416 3.508 110.512 3.28 110.704 3.088C110.896 2.896 111.124 2.8 111.388 2.8Z"/>
</mask>
<path d="M119.128 27.712L117.714 26.2978L119.128 27.712ZM110.704 27.712L109.29 29.1262L109.29 29.1262L110.704 27.712ZM110.416 19.252H112.416V17.252H110.416V19.252ZM104.584 19.252V17.252H102.584V19.252H104.584ZM104.296 27.712L102.882 26.2978L102.882 26.2978L104.296 27.712ZM95.8721 27.748L94.4579 29.1622L94.505 29.2093L94.5551 29.2532L95.8721 27.748ZM95.8721 3.088L97.2864 4.50221L97.2864 4.50221L95.8721 3.088ZM104.296 3.088L102.882 4.50221L102.882 4.50221L104.296 3.088ZM104.584 11.332H102.584V13.332H104.584V11.332ZM110.416 11.332V13.332H112.416V11.332H110.416ZM110.704 3.088L109.29 1.67379L109.29 1.67379L110.704 3.088ZM111.388 4.8H118.444V0.799998H111.388V4.8ZM118.444 4.8C118.328 4.8 118.185 4.77752 118.037 4.71527C117.89 4.65348 117.783 4.57124 117.714 4.50221L120.542 1.67379C119.987 1.11868 119.255 0.799998 118.444 0.799998V4.8ZM117.714 4.50221C117.645 4.43319 117.563 4.32586 117.501 4.17911C117.439 4.03126 117.416 3.88843 117.416 3.772H121.416C121.416 2.96087 121.097 2.22889 120.542 1.67379L117.714 4.50221ZM117.416 3.772V27.028H121.416V3.772H117.416ZM117.416 27.028C117.416 26.9116 117.439 26.7687 117.501 26.6209C117.563 26.4741 117.645 26.3668 117.714 26.2978L120.542 29.1262C121.097 28.5711 121.416 27.8391 121.416 27.028H117.416ZM117.714 26.2978C117.783 26.2288 117.89 26.1465 118.037 26.0847C118.185 26.0225 118.328 26 118.444 26V30C119.255 30 119.987 29.6813 120.542 29.1262L117.714 26.2978ZM118.444 26H111.388V30H118.444V26ZM111.388 26C111.505 26 111.647 26.0225 111.795 26.0847C111.942 26.1465 112.049 26.2288 112.118 26.2978L109.29 29.1262C109.845 29.6813 110.577 30 111.388 30V26ZM112.118 26.2978C112.187 26.3668 112.27 26.4741 112.331 26.6209C112.394 26.7687 112.416 26.9116 112.416 27.028H108.416C108.416 27.8391 108.735 28.5711 109.29 29.1262L112.118 26.2978ZM112.416 27.028V19.252H108.416V27.028H112.416ZM110.416 17.252H104.584V21.252H110.416V17.252ZM102.584 19.252V27.028H106.584V19.252H102.584ZM102.584 27.028C102.584 26.9116 102.607 26.7687 102.669 26.6209C102.731 26.4741 102.813 26.3668 102.882 26.2978L105.71 29.1262C106.265 28.5711 106.584 27.8391 106.584 27.028H102.584ZM102.882 26.2978C102.951 26.2288 103.058 26.1465 103.205 26.0847C103.353 26.0225 103.496 26 103.612 26V30C104.423 30 105.155 29.6813 105.71 29.1262L102.882 26.2978ZM103.612 26H96.5561V30H103.612V26ZM96.5561 26C96.6396 26 96.7528 26.014 96.8786 26.0603C97.0054 26.107 97.1104 26.1739 97.1892 26.2428L94.5551 29.2532C95.1254 29.7521 95.8262 30 96.5561 30V26ZM97.2864 26.3338C97.372 26.4195 97.4555 26.5371 97.5131 26.6812C97.5698 26.823 97.5841 26.9466 97.5841 27.028H93.5841C93.5841 27.8107 93.8663 28.5706 94.4579 29.1622L97.2864 26.3338ZM97.5841 27.028V3.772H93.5841V27.028H97.5841ZM97.5841 3.772C97.5841 3.88843 97.5617 4.03126 97.4994 4.17911C97.4376 4.32586 97.3554 4.43318 97.2864 4.50221L94.4579 1.67379C93.9028 2.22889 93.5841 2.96087 93.5841 3.772H97.5841ZM97.2864 4.50221C97.2173 4.57124 97.11 4.65348 96.9633 4.71527C96.8154 4.77752 96.6726 4.8 96.5561 4.8V0.799998C95.745 0.799998 95.013 1.11868 94.4579 1.67379L97.2864 4.50221ZM96.5561 4.8H103.612V0.799998H96.5561V4.8ZM103.612 4.8C103.496 4.8 103.353 4.77752 103.205 4.71527C103.058 4.65348 102.951 4.57124 102.882 4.50221L105.71 1.67379C105.155 1.11868 104.423 0.799998 103.612 0.799998V4.8ZM102.882 4.50221C102.813 4.43319 102.731 4.32586 102.669 4.17911C102.607 4.03126 102.584 3.88843 102.584 3.772H106.584C106.584 2.96087 106.265 2.22889 105.71 1.67379L102.882 4.50221ZM102.584 3.772V11.332H106.584V3.772H102.584ZM104.584 13.332H110.416V9.332H104.584V13.332ZM112.416 11.332V3.772H108.416V11.332H112.416ZM112.416 3.772C112.416 3.88843 112.394 4.03126 112.331 4.17911C112.27 4.32585 112.187 4.43318 112.118 4.50221L109.29 1.67379C108.735 2.22889 108.416 2.96088 108.416 3.772H112.416ZM112.118 4.50221C112.049 4.57124 111.942 4.65348 111.795 4.71527C111.647 4.77752 111.505 4.8 111.388 4.8V0.799998C110.577 0.799998 109.845 1.11868 109.29 1.67379L112.118 4.50221Z" fill="black" mask="url(#path-1-outside-1_2210_570)"/>
</svg>
