<svg width="16" height="16" viewBox="0 0 16 16" fill="none" xmlns="http://www.w3.org/2000/svg">
<path d="M8 0.46875C5.15625 0.46875 2.8125 2.78125 2.8125 5.65625C2.8125 9.75 7.4375 15.125 7.65625 15.375L8 15.7812L8.34375 15.375C8.5625 15.125 13.1875 9.75 13.1875 5.65625C13.1875 2.78125 10.8438 0.46875 8 0.46875ZM8 14.3125C6.90625 12.9688 3.75 8.78125 3.75 5.65625C3.75 3.3125 5.65625 1.40625 8 1.40625C10.3438 1.40625 12.25 3.3125 12.25 5.65625C12.25 8.78125 9.09375 12.9688 8 14.3125ZM8 2.96875C6.4375 2.96875 5.1875 4.21875 5.1875 5.78125C5.1875 7.34375 6.4375 8.59375 8 8.59375C9.5625 8.59375 10.8125 7.34375 10.8125 5.78125C10.8125 4.21875 9.5625 2.96875 8 2.96875ZM8 7.65625C6.96875 7.65625 6.125 6.8125 6.125 5.78125C6.125 4.75 6.96875 3.90625 8 3.90625C9.03125 3.90625 9.875 4.75 9.875 5.78125C9.875 6.8125 9.03125 7.65625 8 7.65625Z" fill="white"/>
</svg>
