<svg width="197" height="34" viewBox="0 0 197 34" fill="none" xmlns="http://www.w3.org/2000/svg">
<mask id="path-1-outside-1_88_81" maskUnits="userSpaceOnUse" x="9" y="2" width="179" height="27" fill="black">
<rect fill="white" x="9" y="2" width="179" height="27"/>
<path d="M25.8311 4.6H32.1031C32.3378 4.6 32.5405 4.68533 32.7111 4.856C32.8818 5.02667 32.9671 5.22933 32.9671 5.464V26.136C32.9671 26.3707 32.8818 26.5733 32.7111 26.744C32.5405 26.9147 32.3378 27 32.1031 27H25.8311C25.5965 27 25.3938 26.9147 25.2231 26.744C25.0525 26.5733 24.9671 26.3707 24.9671 26.136V19.224H19.7831V26.136C19.7831 26.3707 19.6978 26.5733 19.5271 26.744C19.3565 26.9147 19.1538 27 18.9191 27H12.6471C12.4125 27 12.2098 26.9253 12.0391 26.776C11.8685 26.6053 11.7831 26.392 11.7831 26.136V5.464C11.7831 5.22933 11.8685 5.02667 12.0391 4.856C12.2098 4.68533 12.4125 4.6 12.6471 4.6H18.9191C19.1538 4.6 19.3565 4.68533 19.5271 4.856C19.6978 5.02667 19.7831 5.22933 19.7831 5.464V12.184H24.9671V5.464C24.9671 5.22933 25.0525 5.02667 25.2231 4.856C25.3938 4.68533 25.5965 4.6 25.8311 4.6ZM44.1349 4.6H51.0789C51.8469 4.6 52.3269 4.952 52.5189 5.656L59.6549 26.072C59.6762 26.136 59.6869 26.2427 59.6869 26.392C59.6869 26.52 59.6122 26.6587 59.4629 26.808C59.3349 26.936 59.1749 27 58.9829 27H53.0629C52.4229 27 52.0069 26.7333 51.8149 26.2L51.0469 24.088H44.1669L43.3989 26.2C43.2069 26.7333 42.7909 27 42.1509 27H36.2309C36.0389 27 35.8682 26.936 35.7189 26.808C35.5909 26.6587 35.5269 26.52 35.5269 26.392C35.5269 26.2427 35.5375 26.136 35.5589 26.072L42.6949 5.656C42.8869 4.952 43.3669 4.6 44.1349 4.6ZM45.7989 17.848H49.4149L47.5909 11.896L45.7989 17.848ZM73.8999 12.6C74.1345 12.3227 74.2519 11.992 74.2519 11.608C74.2519 11.224 74.1345 10.8827 73.8999 10.584C73.6865 10.264 73.3665 10.104 72.9399 10.104H70.2519V13.016H72.9399C73.3665 13.016 73.6865 12.8773 73.8999 12.6ZM70.2519 18.36V21.496H73.2279C73.7185 21.496 74.0812 21.336 74.3159 21.016C74.5719 20.6747 74.6999 20.3013 74.6999 19.896V19.864C74.6999 19.4587 74.5612 19.1067 74.2839 18.808C74.0279 18.5093 73.6759 18.36 73.2279 18.36H70.2519ZM74.0599 27H63.1159C62.8812 27 62.6785 26.9147 62.5079 26.744C62.3372 26.5733 62.2519 26.3707 62.2519 26.136V5.464C62.2519 5.22933 62.3372 5.02667 62.5079 4.856C62.6785 4.68533 62.8812 4.6 63.1159 4.6H73.7399C76.7692 4.6 78.9985 5.15467 80.4279 6.264C81.8785 7.352 82.6039 9.00533 82.6039 11.224V11.32C82.6039 12.2373 82.3372 13.0587 81.8039 13.784C81.2705 14.488 80.6839 15 80.0439 15.32C80.8972 15.6613 81.6119 16.2693 82.1879 17.144C82.7852 17.9973 83.0839 18.936 83.0839 19.96C83.0839 24.6533 80.0759 27 74.0599 27ZM93.8314 27H87.3034C87.0687 27 86.866 26.9147 86.6954 26.744C86.5247 26.5733 86.4394 26.3707 86.4394 26.136V5.464C86.4394 5.22933 86.5247 5.02667 86.6954 4.856C86.866 4.68533 87.0687 4.6 87.3034 4.6H93.8314C94.066 4.6 94.2687 4.68533 94.4394 4.856C94.61 5.02667 94.6954 5.22933 94.6954 5.464V26.136C94.6954 26.3707 94.61 26.5733 94.4394 26.744C94.2687 26.9147 94.066 27 93.8314 27ZM98.5896 4.6H117.342C117.576 4.6 117.779 4.68533 117.95 4.856C118.12 5.02667 118.206 5.22933 118.206 5.464V10.616C118.206 10.8507 118.12 11.0533 117.95 11.224C117.779 11.3947 117.576 11.48 117.342 11.48H112.03V26.136C112.03 26.3707 111.944 26.5733 111.774 26.744C111.603 26.9147 111.4 27 111.166 27H104.766C104.531 27 104.328 26.9147 104.158 26.744C103.987 26.5733 103.902 26.3707 103.902 26.136V11.48H98.5896C98.355 11.48 98.1523 11.3947 97.9816 11.224C97.811 11.0533 97.7256 10.8507 97.7256 10.616V5.464C97.7256 5.22933 97.811 5.02667 97.9816 4.856C98.1523 4.68533 98.355 4.6 98.5896 4.6ZM128.26 4.6H135.204C135.972 4.6 136.452 4.952 136.644 5.656L143.78 26.072C143.801 26.136 143.812 26.2427 143.812 26.392C143.812 26.52 143.737 26.6587 143.588 26.808C143.46 26.936 143.3 27 143.108 27H137.188C136.548 27 136.132 26.7333 135.94 26.2L135.172 24.088H128.292L127.524 26.2C127.332 26.7333 126.916 27 126.276 27H120.356C120.164 27 119.993 26.936 119.844 26.808C119.716 26.6587 119.652 26.52 119.652 26.392C119.652 26.2427 119.663 26.136 119.684 26.072L126.82 5.656C127.012 4.952 127.492 4.6 128.26 4.6ZM129.924 17.848H133.54L131.716 11.896L129.924 17.848ZM154.505 20.44H163.369C163.604 20.44 163.806 20.5253 163.977 20.696C164.148 20.8667 164.233 21.0693 164.233 21.304V26.136C164.233 26.3707 164.148 26.5733 163.977 26.744C163.806 26.9147 163.604 27 163.369 27H147.241C147.006 27 146.804 26.9147 146.633 26.744C146.462 26.5733 146.377 26.3707 146.377 26.136V5.464C146.377 5.22933 146.462 5.02667 146.633 4.856C146.804 4.68533 147.006 4.6 147.241 4.6H153.641C153.876 4.6 154.078 4.68533 154.249 4.856C154.42 5.02667 154.505 5.22933 154.505 5.464V20.44ZM174.807 20.76H184.663C184.898 20.76 185.1 20.8453 185.271 21.016C185.442 21.1867 185.527 21.3893 185.527 21.624V26.136C185.527 26.3707 185.442 26.5733 185.271 26.744C185.1 26.9147 184.898 27 184.663 27H167.991C167.756 27 167.554 26.9147 167.383 26.744C167.212 26.5733 167.127 26.3707 167.127 26.136V5.464C167.127 5.22933 167.212 5.02667 167.383 4.856C167.554 4.68533 167.756 4.6 167.991 4.6H184.407C184.642 4.6 184.844 4.68533 185.015 4.856C185.186 5.02667 185.271 5.22933 185.271 5.464V9.976C185.271 10.2107 185.186 10.4133 185.015 10.584C184.844 10.7547 184.642 10.84 184.407 10.84H174.807V12.856H183.703C183.938 12.856 184.14 12.9413 184.311 13.112C184.482 13.2827 184.567 13.4853 184.567 13.72V17.88C184.567 18.1147 184.482 18.3173 184.311 18.488C184.14 18.6587 183.938 18.744 183.703 18.744H174.807V20.76Z"/>
</mask>
<path d="M25.8311 4.6H32.1031C32.3378 4.6 32.5405 4.68533 32.7111 4.856C32.8818 5.02667 32.9671 5.22933 32.9671 5.464V26.136C32.9671 26.3707 32.8818 26.5733 32.7111 26.744C32.5405 26.9147 32.3378 27 32.1031 27H25.8311C25.5965 27 25.3938 26.9147 25.2231 26.744C25.0525 26.5733 24.9671 26.3707 24.9671 26.136V19.224H19.7831V26.136C19.7831 26.3707 19.6978 26.5733 19.5271 26.744C19.3565 26.9147 19.1538 27 18.9191 27H12.6471C12.4125 27 12.2098 26.9253 12.0391 26.776C11.8685 26.6053 11.7831 26.392 11.7831 26.136V5.464C11.7831 5.22933 11.8685 5.02667 12.0391 4.856C12.2098 4.68533 12.4125 4.6 12.6471 4.6H18.9191C19.1538 4.6 19.3565 4.68533 19.5271 4.856C19.6978 5.02667 19.7831 5.22933 19.7831 5.464V12.184H24.9671V5.464C24.9671 5.22933 25.0525 5.02667 25.2231 4.856C25.3938 4.68533 25.5965 4.6 25.8311 4.6ZM44.1349 4.6H51.0789C51.8469 4.6 52.3269 4.952 52.5189 5.656L59.6549 26.072C59.6762 26.136 59.6869 26.2427 59.6869 26.392C59.6869 26.52 59.6122 26.6587 59.4629 26.808C59.3349 26.936 59.1749 27 58.9829 27H53.0629C52.4229 27 52.0069 26.7333 51.8149 26.2L51.0469 24.088H44.1669L43.3989 26.2C43.2069 26.7333 42.7909 27 42.1509 27H36.2309C36.0389 27 35.8682 26.936 35.7189 26.808C35.5909 26.6587 35.5269 26.52 35.5269 26.392C35.5269 26.2427 35.5375 26.136 35.5589 26.072L42.6949 5.656C42.8869 4.952 43.3669 4.6 44.1349 4.6ZM45.7989 17.848H49.4149L47.5909 11.896L45.7989 17.848ZM73.8999 12.6C74.1345 12.3227 74.2519 11.992 74.2519 11.608C74.2519 11.224 74.1345 10.8827 73.8999 10.584C73.6865 10.264 73.3665 10.104 72.9399 10.104H70.2519V13.016H72.9399C73.3665 13.016 73.6865 12.8773 73.8999 12.6ZM70.2519 18.36V21.496H73.2279C73.7185 21.496 74.0812 21.336 74.3159 21.016C74.5719 20.6747 74.6999 20.3013 74.6999 19.896V19.864C74.6999 19.4587 74.5612 19.1067 74.2839 18.808C74.0279 18.5093 73.6759 18.36 73.2279 18.36H70.2519ZM74.0599 27H63.1159C62.8812 27 62.6785 26.9147 62.5079 26.744C62.3372 26.5733 62.2519 26.3707 62.2519 26.136V5.464C62.2519 5.22933 62.3372 5.02667 62.5079 4.856C62.6785 4.68533 62.8812 4.6 63.1159 4.6H73.7399C76.7692 4.6 78.9985 5.15467 80.4279 6.264C81.8785 7.352 82.6039 9.00533 82.6039 11.224V11.32C82.6039 12.2373 82.3372 13.0587 81.8039 13.784C81.2705 14.488 80.6839 15 80.0439 15.32C80.8972 15.6613 81.6119 16.2693 82.1879 17.144C82.7852 17.9973 83.0839 18.936 83.0839 19.96C83.0839 24.6533 80.0759 27 74.0599 27ZM93.8314 27H87.3034C87.0687 27 86.866 26.9147 86.6954 26.744C86.5247 26.5733 86.4394 26.3707 86.4394 26.136V5.464C86.4394 5.22933 86.5247 5.02667 86.6954 4.856C86.866 4.68533 87.0687 4.6 87.3034 4.6H93.8314C94.066 4.6 94.2687 4.68533 94.4394 4.856C94.61 5.02667 94.6954 5.22933 94.6954 5.464V26.136C94.6954 26.3707 94.61 26.5733 94.4394 26.744C94.2687 26.9147 94.066 27 93.8314 27ZM98.5896 4.6H117.342C117.576 4.6 117.779 4.68533 117.95 4.856C118.12 5.02667 118.206 5.22933 118.206 5.464V10.616C118.206 10.8507 118.12 11.0533 117.95 11.224C117.779 11.3947 117.576 11.48 117.342 11.48H112.03V26.136C112.03 26.3707 111.944 26.5733 111.774 26.744C111.603 26.9147 111.4 27 111.166 27H104.766C104.531 27 104.328 26.9147 104.158 26.744C103.987 26.5733 103.902 26.3707 103.902 26.136V11.48H98.5896C98.355 11.48 98.1523 11.3947 97.9816 11.224C97.811 11.0533 97.7256 10.8507 97.7256 10.616V5.464C97.7256 5.22933 97.811 5.02667 97.9816 4.856C98.1523 4.68533 98.355 4.6 98.5896 4.6ZM128.26 4.6H135.204C135.972 4.6 136.452 4.952 136.644 5.656L143.78 26.072C143.801 26.136 143.812 26.2427 143.812 26.392C143.812 26.52 143.737 26.6587 143.588 26.808C143.46 26.936 143.3 27 143.108 27H137.188C136.548 27 136.132 26.7333 135.94 26.2L135.172 24.088H128.292L127.524 26.2C127.332 26.7333 126.916 27 126.276 27H120.356C120.164 27 119.993 26.936 119.844 26.808C119.716 26.6587 119.652 26.52 119.652 26.392C119.652 26.2427 119.663 26.136 119.684 26.072L126.82 5.656C127.012 4.952 127.492 4.6 128.26 4.6ZM129.924 17.848H133.54L131.716 11.896L129.924 17.848ZM154.505 20.44H163.369C163.604 20.44 163.806 20.5253 163.977 20.696C164.148 20.8667 164.233 21.0693 164.233 21.304V26.136C164.233 26.3707 164.148 26.5733 163.977 26.744C163.806 26.9147 163.604 27 163.369 27H147.241C147.006 27 146.804 26.9147 146.633 26.744C146.462 26.5733 146.377 26.3707 146.377 26.136V5.464C146.377 5.22933 146.462 5.02667 146.633 4.856C146.804 4.68533 147.006 4.6 147.241 4.6H153.641C153.876 4.6 154.078 4.68533 154.249 4.856C154.42 5.02667 154.505 5.22933 154.505 5.464V20.44ZM174.807 20.76H184.663C184.898 20.76 185.1 20.8453 185.271 21.016C185.442 21.1867 185.527 21.3893 185.527 21.624V26.136C185.527 26.3707 185.442 26.5733 185.271 26.744C185.1 26.9147 184.898 27 184.663 27H167.991C167.756 27 167.554 26.9147 167.383 26.744C167.212 26.5733 167.127 26.3707 167.127 26.136V5.464C167.127 5.22933 167.212 5.02667 167.383 4.856C167.554 4.68533 167.756 4.6 167.991 4.6H184.407C184.642 4.6 184.844 4.68533 185.015 4.856C185.186 5.02667 185.271 5.22933 185.271 5.464V9.976C185.271 10.2107 185.186 10.4133 185.015 10.584C184.844 10.7547 184.642 10.84 184.407 10.84H174.807V12.856H183.703C183.938 12.856 184.14 12.9413 184.311 13.112C184.482 13.2827 184.567 13.4853 184.567 13.72V17.88C184.567 18.1147 184.482 18.3173 184.311 18.488C184.14 18.6587 183.938 18.744 183.703 18.744H174.807V20.76Z" fill="url(#paint0_linear_88_81)"/>
<path d="M25.2231 26.744L23.8089 28.1582L23.8089 28.1582L25.2231 26.744ZM24.9671 19.224H26.9671V17.224H24.9671V19.224ZM19.7831 19.224V17.224H17.7831V19.224H19.7831ZM19.5271 26.744L18.1129 25.3298L18.1129 25.3298L19.5271 26.744ZM12.0391 26.776L10.6249 28.1902L10.672 28.2373L10.7221 28.2812L12.0391 26.776ZM12.0391 4.856L13.4533 6.27021V6.27021L12.0391 4.856ZM19.5271 4.856L18.1129 6.27021L18.1129 6.27021L19.5271 4.856ZM19.7831 12.184H17.7831V14.184H19.7831V12.184ZM24.9671 12.184V14.184H26.9671V12.184H24.9671ZM25.2231 4.856L23.8089 3.44179L23.8089 3.44179L25.2231 4.856ZM25.8311 6.6H32.1031V2.6H25.8311V6.6ZM32.1031 6.6C31.972 6.6 31.8155 6.57486 31.655 6.50727C31.4956 6.44015 31.3766 6.34991 31.2969 6.27021L34.1253 3.44179C33.5916 2.90802 32.8849 2.6 32.1031 2.6V6.6ZM31.2969 6.27021C31.2172 6.19052 31.127 6.07152 31.0599 5.91211C30.9923 5.75159 30.9671 5.59509 30.9671 5.464H34.9671C34.9671 4.68221 34.6591 3.97555 34.1253 3.44179L31.2969 6.27021ZM30.9671 5.464V26.136H34.9671V5.464H30.9671ZM30.9671 26.136C30.9671 26.0049 30.9923 25.8484 31.0599 25.6879C31.127 25.5285 31.2172 25.4095 31.2969 25.3298L34.1253 28.1582C34.6591 27.6244 34.9671 26.9178 34.9671 26.136H30.9671ZM31.2969 25.3298C31.3766 25.2501 31.4956 25.1598 31.655 25.0927C31.8155 25.0251 31.972 25 32.1031 25V29C32.8849 29 33.5916 28.692 34.1253 28.1582L31.2969 25.3298ZM32.1031 25H25.8311V29H32.1031V25ZM25.8311 25C25.9622 25 26.1187 25.0251 26.2792 25.0927C26.4386 25.1598 26.5576 25.2501 26.6373 25.3298L23.8089 28.1582C24.3427 28.692 25.0493 29 25.8311 29V25ZM26.6373 25.3298C26.717 25.4095 26.8073 25.5285 26.8744 25.6879C26.942 25.8484 26.9671 26.0049 26.9671 26.136H22.9671C22.9671 26.9178 23.2751 27.6244 23.8089 28.1582L26.6373 25.3298ZM26.9671 26.136V19.224H22.9671V26.136H26.9671ZM24.9671 17.224H19.7831V21.224H24.9671V17.224ZM17.7831 19.224V26.136H21.7831V19.224H17.7831ZM17.7831 26.136C17.7831 26.0049 17.8083 25.8484 17.8759 25.6879C17.943 25.5285 18.0332 25.4095 18.1129 25.3298L20.9413 28.1582C21.4751 27.6244 21.7831 26.9178 21.7831 26.136H17.7831ZM18.1129 25.3298C18.1926 25.2501 18.3116 25.1598 18.471 25.0927C18.6315 25.0251 18.788 25 18.9191 25V29C19.7009 29 20.4076 28.692 20.9413 28.1582L18.1129 25.3298ZM18.9191 25H12.6471V29H18.9191V25ZM12.6471 25C12.7453 25 12.8721 25.0163 13.0105 25.0673C13.15 25.1187 13.2667 25.1926 13.3561 25.2708L10.7221 28.2812C11.271 28.7614 11.9465 29 12.6471 29V25ZM13.4533 25.3618C13.5497 25.4581 13.6411 25.5878 13.7041 25.7452C13.7661 25.9003 13.7831 26.0386 13.7831 26.136H9.78312C9.78312 26.8867 10.0547 27.62 10.6249 28.1902L13.4533 25.3618ZM13.7831 26.136V5.464H9.78312V26.136H13.7831ZM13.7831 5.464C13.7831 5.59509 13.758 5.75159 13.6904 5.91211C13.6233 6.07152 13.533 6.19052 13.4533 6.27021L10.6249 3.44179C10.0911 3.97556 9.78312 4.68221 9.78312 5.464H13.7831ZM13.4533 6.27021C13.3736 6.34991 13.2546 6.44015 13.0952 6.50727C12.9347 6.57486 12.7782 6.6 12.6471 6.6V2.6C11.8653 2.6 11.1587 2.90802 10.6249 3.44179L13.4533 6.27021ZM12.6471 6.6H18.9191V2.6H12.6471V6.6ZM18.9191 6.6C18.788 6.6 18.6315 6.57486 18.471 6.50727C18.3116 6.44015 18.1926 6.3499 18.1129 6.27021L20.9413 3.44179C20.4076 2.90802 19.7009 2.6 18.9191 2.6V6.6ZM18.1129 6.27021C18.0332 6.19052 17.943 6.07152 17.8759 5.91211C17.8083 5.75159 17.7831 5.59509 17.7831 5.464H21.7831C21.7831 4.68221 21.4751 3.97555 20.9413 3.44179L18.1129 6.27021ZM17.7831 5.464V12.184H21.7831V5.464H17.7831ZM19.7831 14.184H24.9671V10.184H19.7831V14.184ZM26.9671 12.184V5.464H22.9671V12.184H26.9671ZM26.9671 5.464C26.9671 5.59509 26.942 5.75159 26.8744 5.91211C26.8073 6.07152 26.717 6.19052 26.6373 6.27021L23.8089 3.44179C23.2751 3.97556 22.9671 4.68221 22.9671 5.464H26.9671ZM26.6373 6.27021C26.5576 6.34991 26.4387 6.44015 26.2792 6.50727C26.1187 6.57486 25.9622 6.6 25.8311 6.6V2.6C25.0493 2.6 24.3427 2.90802 23.8089 3.44179L26.6373 6.27021ZM52.5189 5.656L50.5893 6.18223L50.6078 6.2498L50.6309 6.31591L52.5189 5.656ZM59.6549 26.072L61.5522 25.4396L61.5477 25.4258L61.5429 25.4121L59.6549 26.072ZM59.4629 26.808L58.0487 25.3938L58.0487 25.3938L59.4629 26.808ZM51.8149 26.2L53.6967 25.5226L53.6945 25.5165L51.8149 26.2ZM51.0469 24.088L52.9265 23.4045L52.4477 22.088H51.0469V24.088ZM44.1669 24.088V22.088H42.766L42.2873 23.4045L44.1669 24.088ZM43.3989 26.2L41.5193 25.5165L41.5171 25.5226L43.3989 26.2ZM35.7189 26.808L34.2004 28.1096L34.3005 28.2264L34.4173 28.3265L35.7189 26.808ZM35.5589 26.072L33.6709 25.4121L33.6661 25.4258L33.6615 25.4395L35.5589 26.072ZM42.6949 5.656L44.5829 6.31591L44.606 6.2498L44.6244 6.18223L42.6949 5.656ZM45.7989 17.848L43.8838 17.2714L43.108 19.848H45.7989V17.848ZM49.4149 17.848V19.848H52.1196L51.3271 17.262L49.4149 17.848ZM47.5909 11.896L49.5031 11.31L47.5739 5.01484L45.6758 11.3194L47.5909 11.896ZM44.1349 6.6H51.0789V2.6H44.1349V6.6ZM51.0789 6.6C51.1612 6.6 51.023 6.61679 50.8321 6.47681C50.631 6.32929 50.5847 6.16503 50.5893 6.18223L54.4484 5.12976C54.2611 4.44297 53.8788 3.75071 53.1976 3.25119C52.5267 2.7592 51.7646 2.6 51.0789 2.6V6.6ZM50.6309 6.31591L57.7669 26.7319L61.5429 25.4121L54.4069 4.99609L50.6309 6.31591ZM57.7575 26.7044C57.7273 26.6138 57.7114 26.5407 57.7031 26.4966C57.6945 26.4506 57.6906 26.4166 57.6888 26.399C57.6855 26.3662 57.6869 26.3601 57.6869 26.392H61.6869C61.6869 26.2241 61.684 25.8347 61.5522 25.4396L57.7575 26.7044ZM57.6869 26.392C57.6869 26.0571 57.786 25.7996 57.8699 25.6438C57.9502 25.4947 58.0294 25.4131 58.0487 25.3938L60.8771 28.2222C61.17 27.9293 61.6869 27.3065 61.6869 26.392H57.6869ZM58.0487 25.3938C58.1663 25.2761 58.32 25.1687 58.5041 25.095C58.6858 25.0223 58.8534 25 58.9829 25V29C59.6696 29 60.3495 28.7498 60.8771 28.2222L58.0487 25.3938ZM58.9829 25H53.0629V29H58.9829V25ZM53.0629 25C53.0141 25 53.1537 24.9902 53.3502 25.1162C53.5666 25.2549 53.6663 25.4383 53.6967 25.5226L49.9331 26.8774C50.1554 27.495 50.5592 28.0784 51.1915 28.4838C51.8041 28.8764 52.4716 29 53.0629 29V25ZM53.6945 25.5165L52.9265 23.4045L49.1673 24.7715L49.9353 26.8835L53.6945 25.5165ZM51.0469 22.088H44.1669V26.088H51.0469V22.088ZM42.2873 23.4045L41.5193 25.5165L45.2785 26.8835L46.0465 24.7715L42.2873 23.4045ZM41.5171 25.5226C41.5474 25.4383 41.6472 25.2549 41.8635 25.1162C42.0601 24.9902 42.1996 25 42.1509 25V29C42.7421 29 43.4097 28.8764 44.0222 28.4838C44.6546 28.0784 45.0583 27.495 45.2807 26.8774L41.5171 25.5226ZM42.1509 25H36.2309V29H42.1509V25ZM36.2309 25C36.3618 25 36.5101 25.0227 36.6611 25.0793C36.8115 25.1357 36.9317 25.2134 37.0205 25.2895L34.4173 28.3265C34.9194 28.7569 35.5489 29 36.2309 29V25ZM37.2374 25.5064C37.2605 25.5334 37.5269 25.8442 37.5269 26.392H33.5269C33.5269 27.1958 33.9213 27.784 34.2004 28.1096L37.2374 25.5064ZM37.5269 26.392C37.5269 26.3601 37.5282 26.3662 37.5249 26.399C37.5232 26.4166 37.5192 26.4506 37.5106 26.4966C37.5023 26.5407 37.4865 26.6138 37.4562 26.7045L33.6615 25.4395C33.5298 25.8347 33.5269 26.2241 33.5269 26.392H37.5269ZM37.4469 26.7319L44.5829 6.31591L40.8069 4.99609L33.6709 25.4121L37.4469 26.7319ZM44.6244 6.18223C44.6291 6.16503 44.5828 6.32929 44.3816 6.47681C44.1907 6.61679 44.0526 6.6 44.1349 6.6V2.6C43.4492 2.6 42.687 2.7592 42.0161 3.25119C41.335 3.75071 40.9527 4.44297 40.7653 5.12976L44.6244 6.18223ZM45.7989 19.848H49.4149V15.848H45.7989V19.848ZM51.3271 17.262L49.5031 11.31L45.6787 12.482L47.5027 18.434L51.3271 17.262ZM45.6758 11.3194L43.8838 17.2714L47.714 18.4246L49.506 12.4726L45.6758 11.3194ZM73.8999 12.6L72.3731 11.3081L72.343 11.3437L72.3146 11.3806L73.8999 12.6ZM73.8999 10.584L72.2358 11.6934L72.279 11.7583L72.3272 11.8196L73.8999 10.584ZM70.2519 10.104V8.104H68.2519V10.104H70.2519ZM70.2519 13.016H68.2519V15.016H70.2519V13.016ZM70.2519 18.36V16.36H68.2519V18.36H70.2519ZM70.2519 21.496H68.2519V23.496H70.2519V21.496ZM74.3159 21.016L72.7159 19.816L72.7094 19.8246L72.7031 19.8333L74.3159 21.016ZM74.2839 18.808L72.7654 20.1096L72.7912 20.1398L72.8183 20.1689L74.2839 18.808ZM62.5079 26.744L63.9221 25.3298L62.5079 26.744ZM62.5079 4.856L63.9221 6.27021L63.9221 6.27021L62.5079 4.856ZM80.4279 6.264L79.2016 7.84397L79.2147 7.85409L79.2279 7.864L80.4279 6.264ZM81.8039 13.784L83.3981 14.9917L83.4067 14.9803L83.4152 14.9688L81.8039 13.784ZM80.0439 15.32L79.1494 13.5311L75.166 15.5229L79.3011 17.177L80.0439 15.32ZM82.1879 17.144L80.5175 18.244L80.5331 18.2677L80.5494 18.2909L82.1879 17.144ZM75.4267 13.8919C75.9852 13.2317 76.2519 12.4358 76.2519 11.608H72.2519C72.2519 11.5936 72.2546 11.5439 72.279 11.4752C72.304 11.4049 72.34 11.3472 72.3731 11.3081L75.4267 13.8919ZM76.2519 11.608C76.2519 10.7812 75.9873 10.0036 75.4725 9.34836L72.3272 11.8196C72.3136 11.8023 72.2903 11.766 72.2725 11.7142C72.2548 11.6626 72.2519 11.623 72.2519 11.608H76.2519ZM75.564 9.4746C74.9344 8.53019 73.9492 8.104 72.9399 8.104V12.104C72.902 12.104 72.7717 12.096 72.6054 12.0129C72.4309 11.9256 72.3072 11.8006 72.2358 11.6934L75.564 9.4746ZM72.9399 8.104H70.2519V12.104H72.9399V8.104ZM68.2519 10.104V13.016H72.2519V10.104H68.2519ZM70.2519 15.016H72.9399V11.016H70.2519V15.016ZM72.9399 15.016C73.8358 15.016 74.8094 14.6978 75.4851 13.8194L72.3146 11.3806C72.4141 11.2513 72.5523 11.1429 72.7047 11.0769C72.8451 11.016 72.9392 11.016 72.9399 11.016V15.016ZM68.2519 18.36V21.496H72.2519V18.36H68.2519ZM70.2519 23.496H73.2279V19.496H70.2519V23.496ZM73.2279 23.496C74.1872 23.496 75.2277 23.1547 75.9287 22.1987L72.7031 19.8333C72.7927 19.7111 72.921 19.6077 73.0606 19.5462C73.1865 19.4906 73.2595 19.496 73.2279 19.496V23.496ZM75.9159 22.216C76.4169 21.5479 76.6999 20.7578 76.6999 19.896H72.6999C72.6999 19.8916 72.7003 19.8824 72.7024 19.8696C72.7045 19.8567 72.7078 19.8436 72.712 19.8314C72.7211 19.8047 72.7285 19.7992 72.7159 19.816L75.9159 22.216ZM76.6999 19.896V19.864H72.6999V19.896H76.6999ZM76.6999 19.864C76.6999 18.9507 76.3682 18.1134 75.7495 17.4471L72.8183 20.1689C72.8004 20.1497 72.764 20.1026 72.7351 20.029C72.706 19.9554 72.6999 19.8942 72.6999 19.864H76.6999ZM75.8024 17.5064C75.1113 16.7001 74.1693 16.36 73.2279 16.36V20.36C73.229 20.36 73.1565 20.3597 73.0468 20.3132C72.9303 20.2637 72.8323 20.1876 72.7654 20.1096L75.8024 17.5064ZM73.2279 16.36H70.2519V20.36H73.2279V16.36ZM74.0599 25H63.1159V29H74.0599V25ZM63.1159 25C63.247 25 63.4035 25.0251 63.564 25.0927C63.7234 25.1598 63.8424 25.2501 63.9221 25.3298L61.0937 28.1582C61.6274 28.692 62.3341 29 63.1159 29V25ZM63.9221 25.3298C64.0018 25.4095 64.092 25.5285 64.1591 25.6879C64.2267 25.8484 64.2519 26.0049 64.2519 26.136H60.2519C60.2519 26.9178 60.5599 27.6244 61.0937 28.1582L63.9221 25.3298ZM64.2519 26.136V5.464H60.2519V26.136H64.2519ZM64.2519 5.464C64.2519 5.59509 64.2267 5.75159 64.1591 5.91211C64.092 6.07152 64.0018 6.19052 63.9221 6.27021L61.0937 3.44179C60.5599 3.97556 60.2519 4.68221 60.2519 5.464H64.2519ZM63.9221 6.27021C63.8424 6.34991 63.7234 6.44015 63.564 6.50727C63.4035 6.57486 63.247 6.6 63.1159 6.6V2.6C62.3341 2.6 61.6274 2.90802 61.0937 3.44179L63.9221 6.27021ZM63.1159 6.6H73.7399V2.6H63.1159V6.6ZM73.7399 6.6C76.5982 6.6 78.2906 7.13689 79.2016 7.84397L81.6541 4.68403C79.7065 3.17244 76.9402 2.6 73.7399 2.6V6.6ZM79.2279 7.864C80.0612 8.489 80.6039 9.47766 80.6039 11.224H84.6039C84.6039 8.53301 83.6959 6.215 81.6279 4.664L79.2279 7.864ZM80.6039 11.224V11.32H84.6039V11.224H80.6039ZM80.6039 11.32C80.6039 11.8197 80.4683 12.2242 80.1926 12.5992L83.4152 14.9688C84.2061 13.8931 84.6039 12.6549 84.6039 11.32H80.6039ZM80.2097 12.5763C79.8193 13.0916 79.4578 13.377 79.1494 13.5311L80.9383 17.1089C81.9099 16.623 82.7218 15.8844 83.3981 14.9917L80.2097 12.5763ZM79.3011 17.177C79.7239 17.3461 80.1337 17.6611 80.5175 18.244L83.8582 16.044C83.09 14.8775 82.0706 13.9766 80.7867 13.463L79.3011 17.177ZM80.5494 18.2909C80.9158 18.8143 81.0839 19.3538 81.0839 19.96H85.0839C85.0839 18.5182 84.6547 17.1804 83.8263 15.9971L80.5494 18.2909ZM81.0839 19.96C81.0839 21.8476 80.5042 22.9559 79.5977 23.6631C78.5967 24.444 76.8628 25 74.0599 25V29C77.2729 29 80.051 28.3827 82.0581 26.8169C84.1596 25.1774 85.0839 22.7658 85.0839 19.96H81.0839ZM86.6954 26.744L88.1096 25.3298L86.6954 26.744ZM86.6954 4.856L88.1096 6.27021V6.27021L86.6954 4.856ZM94.4394 4.856L95.8536 3.44179V3.44179L94.4394 4.856ZM94.4394 26.744L95.8536 28.1582L95.8536 28.1582L94.4394 26.744ZM93.8314 25H87.3034V29H93.8314V25ZM87.3034 25C87.4345 25 87.591 25.0251 87.7515 25.0927C87.9109 25.1598 88.0299 25.2501 88.1096 25.3298L85.2812 28.1582C85.8149 28.692 86.5216 29 87.3034 29V25ZM88.1096 25.3298C88.1893 25.4095 88.2795 25.5285 88.3466 25.6879C88.4142 25.8484 88.4394 26.0049 88.4394 26.136H84.4394C84.4394 26.9178 84.7474 27.6244 85.2812 28.1582L88.1096 25.3298ZM88.4394 26.136V5.464H84.4394V26.136H88.4394ZM88.4394 5.464C88.4394 5.59509 88.4142 5.75159 88.3466 5.91211C88.2795 6.07152 88.1893 6.19052 88.1096 6.27021L85.2812 3.44179C84.7474 3.97556 84.4394 4.68221 84.4394 5.464H88.4394ZM88.1096 6.27021C88.0299 6.34991 87.9109 6.44015 87.7515 6.50727C87.591 6.57486 87.4345 6.6 87.3034 6.6V2.6C86.5216 2.6 85.8149 2.90802 85.2812 3.44179L88.1096 6.27021ZM87.3034 6.6H93.8314V2.6H87.3034V6.6ZM93.8314 6.6C93.7003 6.6 93.5438 6.57486 93.3833 6.50727C93.2239 6.44015 93.1049 6.34991 93.0252 6.27021L95.8536 3.44179C95.3198 2.90802 94.6132 2.6 93.8314 2.6V6.6ZM93.0252 6.27021C92.9455 6.19052 92.8552 6.07152 92.7881 5.91211C92.7205 5.75159 92.6954 5.59509 92.6954 5.464H96.6954C96.6954 4.68221 96.3874 3.97556 95.8536 3.44179L93.0252 6.27021ZM92.6954 5.464V26.136H96.6954V5.464H92.6954ZM92.6954 26.136C92.6954 26.0049 92.7205 25.8484 92.7881 25.6879C92.8552 25.5285 92.9455 25.4095 93.0252 25.3298L95.8536 28.1582C96.3874 27.6244 96.6954 26.9178 96.6954 26.136H92.6954ZM93.0252 25.3298C93.1049 25.2501 93.2239 25.1598 93.3833 25.0927C93.5438 25.0251 93.7003 25 93.8314 25V29C94.6132 29 95.3198 28.692 95.8536 28.1582L93.0252 25.3298ZM117.95 4.856L119.364 3.44179L119.364 3.44179L117.95 4.856ZM117.95 11.224L119.364 12.6382L119.364 12.6382L117.95 11.224ZM112.03 11.48V9.48H110.03V11.48H112.03ZM111.774 26.744L110.359 25.3298V25.3298L111.774 26.744ZM103.902 11.48H105.902V9.48H103.902V11.48ZM98.5896 6.6H117.342V2.6H98.5896V6.6ZM117.342 6.6C117.211 6.6 117.054 6.57486 116.894 6.50727C116.734 6.44015 116.615 6.34991 116.535 6.27021L119.364 3.44179C118.83 2.90801 118.123 2.6 117.342 2.6V6.6ZM116.535 6.27021C116.456 6.19051 116.365 6.07152 116.298 5.91211C116.231 5.75159 116.206 5.59509 116.206 5.464H120.206C120.206 4.68221 119.898 3.97556 119.364 3.44179L116.535 6.27021ZM116.206 5.464V10.616H120.206V5.464H116.206ZM116.206 10.616C116.206 10.4849 116.231 10.3284 116.298 10.1679C116.365 10.0085 116.456 9.88948 116.535 9.80979L119.364 12.6382C119.898 12.1044 120.206 11.3978 120.206 10.616H116.206ZM116.535 9.80979C116.615 9.73009 116.734 9.63985 116.894 9.57273C117.054 9.50514 117.211 9.48 117.342 9.48V13.48C118.123 13.48 118.83 13.172 119.364 12.6382L116.535 9.80979ZM117.342 9.48H112.03V13.48H117.342V9.48ZM110.03 11.48V26.136H114.03V11.48H110.03ZM110.03 26.136C110.03 26.0049 110.055 25.8484 110.122 25.6879C110.189 25.5285 110.28 25.4095 110.359 25.3298L113.188 28.1582C113.722 27.6244 114.03 26.9178 114.03 26.136H110.03ZM110.359 25.3298C110.439 25.2501 110.558 25.1598 110.718 25.0927C110.878 25.0251 111.035 25 111.166 25V29C111.947 29 112.654 28.692 113.188 28.1582L110.359 25.3298ZM111.166 25H104.766V29H111.166V25ZM104.766 25C104.897 25 105.053 25.0251 105.214 25.0927C105.373 25.1598 105.492 25.2501 105.572 25.3298L102.743 28.1582C103.277 28.692 103.984 29 104.766 29V25ZM105.572 25.3298C105.652 25.4095 105.742 25.5285 105.809 25.6879C105.876 25.8484 105.902 26.0049 105.902 26.136H101.902C101.902 26.9178 102.21 27.6244 102.743 28.1582L105.572 25.3298ZM105.902 26.136V11.48H101.902V26.136H105.902ZM103.902 9.48H98.5896V13.48H103.902V9.48ZM98.5896 9.48C98.7207 9.48 98.8772 9.50514 99.0377 9.57273C99.1972 9.63985 99.3161 9.73009 99.3958 9.80979L96.5674 12.6382C97.1012 13.172 97.8078 13.48 98.5896 13.48V9.48ZM99.3958 9.80979C99.4755 9.88948 99.5658 10.0085 99.6329 10.1679C99.7005 10.3284 99.7256 10.4849 99.7256 10.616H95.7256C95.7256 11.3978 96.0336 12.1044 96.5674 12.6382L99.3958 9.80979ZM99.7256 10.616V5.464H95.7256V10.616H99.7256ZM99.7256 5.464C99.7256 5.59509 99.7005 5.75159 99.6329 5.91211C99.5658 6.07152 99.4755 6.19052 99.3958 6.27021L96.5674 3.44179C96.0336 3.97556 95.7256 4.68221 95.7256 5.464H99.7256ZM99.3958 6.27021C99.3161 6.34991 99.1972 6.44015 99.0377 6.50727C98.8772 6.57486 98.7207 6.6 98.5896 6.6V2.6C97.8078 2.6 97.1012 2.90802 96.5674 3.44179L99.3958 6.27021ZM136.644 5.656L134.714 6.18223L134.733 6.2498L134.756 6.31591L136.644 5.656ZM143.78 26.072L145.677 25.4396L145.673 25.4258L145.668 25.4121L143.78 26.072ZM143.588 26.808L142.174 25.3938V25.3938L143.588 26.808ZM135.94 26.2L137.822 25.5226L137.819 25.5165L135.94 26.2ZM135.172 24.088L137.051 23.4045L136.573 22.088H135.172V24.088ZM128.292 24.088V22.088H126.891L126.412 23.4045L128.292 24.088ZM127.524 26.2L125.644 25.5165L125.642 25.5226L127.524 26.2ZM119.844 26.808L118.325 28.1096L118.425 28.2264L118.542 28.3265L119.844 26.808ZM119.684 26.072L117.796 25.4121L117.791 25.4258L117.787 25.4395L119.684 26.072ZM126.82 5.656L128.708 6.31591L128.731 6.2498L128.749 6.18223L126.82 5.656ZM129.924 17.848L128.009 17.2714L127.233 19.848H129.924V17.848ZM133.54 17.848V19.848H136.245L135.452 17.262L133.54 17.848ZM131.716 11.896L133.628 11.31L131.699 5.01484L129.801 11.3194L131.716 11.896ZM128.26 6.6H135.204V2.6H128.26V6.6ZM135.204 6.6C135.286 6.6 135.148 6.61679 134.957 6.47681C134.756 6.32929 134.71 6.16503 134.714 6.18223L138.573 5.12976C138.386 4.44297 138.004 3.75071 137.323 3.25119C136.652 2.7592 135.89 2.6 135.204 2.6V6.6ZM134.756 6.31591L141.892 26.7319L145.668 25.4121L138.532 4.99609L134.756 6.31591ZM141.883 26.7044C141.852 26.6138 141.836 26.5407 141.828 26.4966C141.82 26.4506 141.816 26.4166 141.814 26.399C141.811 26.3662 141.812 26.3601 141.812 26.392H145.812C145.812 26.2241 145.809 25.8347 145.677 25.4396L141.883 26.7044ZM141.812 26.392C141.812 26.0571 141.911 25.7996 141.995 25.6438C142.075 25.4947 142.154 25.4131 142.174 25.3938L145.002 28.2222C145.295 27.9293 145.812 27.3065 145.812 26.392H141.812ZM142.174 25.3938C142.291 25.2761 142.445 25.1687 142.629 25.095C142.811 25.0223 142.978 25 143.108 25V29C143.795 29 144.475 28.7498 145.002 28.2222L142.174 25.3938ZM143.108 25H137.188V29H143.108V25ZM137.188 25C137.139 25 137.279 24.9902 137.475 25.1162C137.692 25.2549 137.791 25.4383 137.822 25.5226L134.058 26.8774C134.28 27.495 134.684 28.0784 135.317 28.4838C135.929 28.8764 136.597 29 137.188 29V25ZM137.819 25.5165L137.051 23.4045L133.292 24.7715L134.06 26.8835L137.819 25.5165ZM135.172 22.088H128.292V26.088H135.172V22.088ZM126.412 23.4045L125.644 25.5165L129.403 26.8835L130.171 24.7715L126.412 23.4045ZM125.642 25.5226C125.672 25.4383 125.772 25.2549 125.989 25.1162C126.185 24.9902 126.325 25 126.276 25V29C126.867 29 127.535 28.8764 128.147 28.4838C128.78 28.0784 129.183 27.495 129.406 26.8774L125.642 25.5226ZM126.276 25H120.356V29H126.276V25ZM120.356 25C120.487 25 120.635 25.0227 120.786 25.0793C120.936 25.1357 121.057 25.2134 121.145 25.2895L118.542 28.3265C119.044 28.7569 119.674 29 120.356 29V25ZM121.362 25.5064C121.385 25.5334 121.652 25.8442 121.652 26.392H117.652C117.652 27.1958 118.046 27.784 118.325 28.1096L121.362 25.5064ZM121.652 26.392C121.652 26.3601 121.653 26.3662 121.65 26.399C121.648 26.4166 121.644 26.4506 121.636 26.4966C121.627 26.5407 121.611 26.6138 121.581 26.7045L117.787 25.4395C117.655 25.8347 117.652 26.2241 117.652 26.392H121.652ZM121.572 26.7319L128.708 6.31591L124.932 4.99609L117.796 25.4121L121.572 26.7319ZM128.749 6.18223C128.754 6.16503 128.708 6.32929 128.507 6.47681C128.316 6.61679 128.178 6.6 128.26 6.6V2.6C127.574 2.6 126.812 2.7592 126.141 3.25119C125.46 3.75071 125.078 4.44297 124.89 5.12976L128.749 6.18223ZM129.924 19.848H133.54V15.848H129.924V19.848ZM135.452 17.262L133.628 11.31L129.804 12.482L131.628 18.434L135.452 17.262ZM129.801 11.3194L128.009 17.2714L131.839 18.4246L133.631 12.4726L129.801 11.3194ZM154.505 20.44H152.505V22.44H154.505V20.44ZM163.977 20.696L162.563 22.1102L162.563 22.1102L163.977 20.696ZM163.977 26.744L162.563 25.3298L162.563 25.3298L163.977 26.744ZM146.633 26.744L148.047 25.3298L146.633 26.744ZM146.633 4.856L148.047 6.27021V6.27021L146.633 4.856ZM154.249 4.856L155.663 3.44179V3.44179L154.249 4.856ZM154.505 22.44H163.369V18.44H154.505V22.44ZM163.369 22.44C163.238 22.44 163.081 22.4149 162.921 22.3473C162.761 22.2801 162.642 22.1899 162.563 22.1102L165.391 19.2818C164.857 18.748 164.151 18.44 163.369 18.44V22.44ZM162.563 22.1102C162.483 22.0305 162.393 21.9115 162.326 21.7521C162.258 21.5916 162.233 21.4351 162.233 21.304H166.233C166.233 20.5222 165.925 19.8156 165.391 19.2818L162.563 22.1102ZM162.233 21.304V26.136H166.233V21.304H162.233ZM162.233 26.136C162.233 26.0049 162.258 25.8484 162.326 25.6879C162.393 25.5285 162.483 25.4095 162.563 25.3298L165.391 28.1582C165.925 27.6244 166.233 26.9178 166.233 26.136H162.233ZM162.563 25.3298C162.642 25.2501 162.761 25.1598 162.921 25.0927C163.081 25.0251 163.238 25 163.369 25V29C164.151 29 164.857 28.692 165.391 28.1582L162.563 25.3298ZM163.369 25H147.241V29H163.369V25ZM147.241 25C147.372 25 147.528 25.0251 147.689 25.0927C147.848 25.1598 147.967 25.2501 148.047 25.3298L145.219 28.1582C145.752 28.692 146.459 29 147.241 29V25ZM148.047 25.3298C148.127 25.4095 148.217 25.5285 148.284 25.6879C148.352 25.8484 148.377 26.0049 148.377 26.136H144.377C144.377 26.9178 144.685 27.6244 145.219 28.1582L148.047 25.3298ZM148.377 26.136V5.464H144.377V26.136H148.377ZM148.377 5.464C148.377 5.59509 148.352 5.75159 148.284 5.91211C148.217 6.07152 148.127 6.19052 148.047 6.27021L145.219 3.44179C144.685 3.97556 144.377 4.68221 144.377 5.464H148.377ZM148.047 6.27021C147.967 6.34991 147.848 6.44015 147.689 6.50727C147.528 6.57486 147.372 6.6 147.241 6.6V2.6C146.459 2.6 145.752 2.90802 145.219 3.44179L148.047 6.27021ZM147.241 6.6H153.641V2.6H147.241V6.6ZM153.641 6.6C153.51 6.6 153.353 6.57486 153.193 6.50727C153.033 6.44015 152.914 6.34991 152.835 6.27021L155.663 3.44179C155.129 2.90802 154.423 2.6 153.641 2.6V6.6ZM152.835 6.27021C152.755 6.19052 152.665 6.07152 152.598 5.91211C152.53 5.75159 152.505 5.59509 152.505 5.464H156.505C156.505 4.68221 156.197 3.97556 155.663 3.44179L152.835 6.27021ZM152.505 5.464V20.44H156.505V5.464H152.505ZM174.807 20.76H172.807V22.76H174.807V20.76ZM167.383 26.744L168.797 25.3298L167.383 26.744ZM167.383 4.856L168.797 6.27021V6.27021L167.383 4.856ZM185.015 4.856L183.601 6.27021V6.27021L185.015 4.856ZM185.015 10.584L183.601 9.16979V9.16979L185.015 10.584ZM174.807 10.84V8.84H172.807V10.84H174.807ZM174.807 12.856H172.807V14.856H174.807V12.856ZM184.311 13.112L185.725 11.6978V11.6978L184.311 13.112ZM184.311 18.488L185.725 19.9022L185.725 19.9022L184.311 18.488ZM174.807 18.744V16.744H172.807V18.744H174.807ZM174.807 22.76H184.663V18.76H174.807V22.76ZM184.663 22.76C184.532 22.76 184.375 22.7349 184.215 22.6673C184.055 22.6002 183.936 22.5099 183.857 22.4302L186.685 19.6018C186.151 19.068 185.445 18.76 184.663 18.76V22.76ZM183.857 22.4302C183.777 22.3505 183.687 22.2315 183.62 22.0721C183.552 21.9116 183.527 21.7551 183.527 21.624H187.527C187.527 20.8422 187.219 20.1356 186.685 19.6018L183.857 22.4302ZM183.527 21.624V26.136H187.527V21.624H183.527ZM183.527 26.136C183.527 26.0049 183.552 25.8484 183.62 25.6879C183.687 25.5285 183.777 25.4095 183.857 25.3298L186.685 28.1582C187.219 27.6244 187.527 26.9178 187.527 26.136H183.527ZM183.857 25.3298C183.936 25.2501 184.055 25.1598 184.215 25.0927C184.375 25.0251 184.532 25 184.663 25V29C185.445 29 186.151 28.692 186.685 28.1582L183.857 25.3298ZM184.663 25H167.991V29H184.663V25ZM167.991 25C168.122 25 168.278 25.0251 168.439 25.0927C168.598 25.1598 168.717 25.2501 168.797 25.3298L165.969 28.1582C166.502 28.692 167.209 29 167.991 29V25ZM168.797 25.3298C168.877 25.4095 168.967 25.5285 169.034 25.6879C169.102 25.8484 169.127 26.0049 169.127 26.136H165.127C165.127 26.9178 165.435 27.6244 165.969 28.1582L168.797 25.3298ZM169.127 26.136V5.464H165.127V26.136H169.127ZM169.127 5.464C169.127 5.59509 169.102 5.75159 169.034 5.91211C168.967 6.07152 168.877 6.19052 168.797 6.27021L165.969 3.44179C165.435 3.97556 165.127 4.68221 165.127 5.464H169.127ZM168.797 6.27021C168.717 6.34991 168.598 6.44015 168.439 6.50727C168.278 6.57486 168.122 6.6 167.991 6.6V2.6C167.209 2.6 166.502 2.90802 165.969 3.44179L168.797 6.27021ZM167.991 6.6H184.407V2.6H167.991V6.6ZM184.407 6.6C184.276 6.6 184.119 6.57486 183.959 6.50727C183.799 6.44015 183.68 6.3499 183.601 6.27021L186.429 3.44179C185.895 2.90801 185.189 2.6 184.407 2.6V6.6ZM183.601 6.27021C183.521 6.19052 183.431 6.07152 183.364 5.91211C183.296 5.75159 183.271 5.59509 183.271 5.464H187.271C187.271 4.68221 186.963 3.97555 186.429 3.44179L183.601 6.27021ZM183.271 5.464V9.976H187.271V5.464H183.271ZM183.271 9.976C183.271 9.8449 183.296 9.68841 183.364 9.52788C183.431 9.36847 183.521 9.24948 183.601 9.16979L186.429 11.9982C186.963 11.4644 187.271 10.7578 187.271 9.976H183.271ZM183.601 9.16979C183.68 9.0901 183.799 8.99985 183.959 8.93273C184.119 8.86514 184.276 8.84 184.407 8.84V12.84C185.189 12.84 185.895 12.532 186.429 11.9982L183.601 9.16979ZM184.407 8.84H174.807V12.84H184.407V8.84ZM172.807 10.84V12.856H176.807V10.84H172.807ZM174.807 14.856H183.703V10.856H174.807V14.856ZM183.703 14.856C183.572 14.856 183.415 14.8309 183.255 14.7633C183.095 14.6962 182.976 14.6059 182.897 14.5262L185.725 11.6978C185.191 11.164 184.485 10.856 183.703 10.856V14.856ZM182.897 14.5262C182.817 14.4465 182.727 14.3275 182.66 14.1681C182.592 14.0076 182.567 13.8511 182.567 13.72H186.567C186.567 12.9382 186.259 12.2316 185.725 11.6978L182.897 14.5262ZM182.567 13.72V17.88H186.567V13.72H182.567ZM182.567 17.88C182.567 17.7489 182.592 17.5924 182.66 17.4319C182.727 17.2725 182.817 17.1535 182.897 17.0738L185.725 19.9022C186.259 19.3684 186.567 18.6618 186.567 17.88H182.567ZM182.897 17.0738C182.976 16.9941 183.095 16.9038 183.255 16.8367C183.415 16.7691 183.572 16.744 183.703 16.744V20.744C184.485 20.744 185.191 20.436 185.725 19.9022L182.897 17.0738ZM183.703 16.744H174.807V20.744H183.703V16.744ZM172.807 18.744V20.76H176.807V18.744H172.807Z" fill="black" mask="url(#path-1-outside-1_88_81)"/>
<defs>
<linearGradient id="paint0_linear_88_81" x1="0" y1="17" x2="197" y2="17" gradientUnits="userSpaceOnUse">
<stop offset="0.205" stop-color="#1545E6"/>
<stop offset="0.765" stop-color="#1587E6"/>
</linearGradient>
</defs>
</svg>
